<svg width="118" height="44" viewBox="0 0 118 44" fill="none" xmlns="http://www.w3.org/2000/svg">
<path d="M7.89113 17.214H10.0751V27H7.89113V23.15H3.99913V27H1.81513V17.214H3.99913V21.302H7.89113V17.214ZM14.1492 23.234C14.1492 23.85 14.3219 24.354 14.6672 24.746C15.0219 25.1287 15.4699 25.32 16.0112 25.32C16.5619 25.32 17.0099 25.1287 17.3552 24.746C17.7099 24.354 17.8872 23.85 17.8872 23.234C17.8872 22.618 17.7099 22.114 17.3552 21.722C17.0099 21.33 16.5619 21.134 16.0112 21.134C15.4699 21.134 15.0219 21.33 14.6672 21.722C14.3219 22.114 14.1492 22.618 14.1492 23.234ZM20.0012 23.234C20.0012 24.326 19.6232 25.2453 18.8672 25.992C18.1112 26.7387 17.1592 27.112 16.0112 27.112C14.8725 27.112 13.9252 26.7387 13.1692 25.992C12.4132 25.2453 12.0352 24.326 12.0352 23.234C12.0352 22.142 12.4132 21.2227 13.1692 20.476C13.9252 19.72 14.8725 19.342 16.0112 19.342C17.1592 19.342 18.1112 19.72 18.8672 20.476C19.6232 21.2227 20.0012 22.142 20.0012 23.234ZM28.677 22.94V27H26.563V22.884C26.563 22.2867 26.4697 21.848 26.283 21.568C26.1057 21.288 25.8117 21.148 25.401 21.148C24.9997 21.148 24.6403 21.302 24.323 21.61C24.015 21.9087 23.861 22.352 23.861 22.94V27H21.761V19.468H23.861V20.322C24.4397 19.6687 25.1023 19.342 25.849 19.342C26.325 19.342 26.7543 19.482 27.137 19.762C27.529 20.042 27.823 20.3827 28.019 20.784C28.3083 20.3267 28.6957 19.972 29.181 19.72C29.6757 19.468 30.1703 19.342 30.665 19.342C31.5517 19.342 32.2657 19.608 32.807 20.14C33.3483 20.6627 33.619 21.4233 33.619 22.422V27H31.505V22.884C31.505 21.7267 31.0803 21.148 30.231 21.148C29.811 21.148 29.447 21.302 29.139 21.61C28.831 21.9087 28.677 22.352 28.677 22.94ZM42.2526 25.908C41.4032 26.7107 40.4046 27.112 39.2566 27.112C38.1179 27.112 37.1752 26.762 36.4286 26.062C35.6819 25.3527 35.3086 24.4053 35.3086 23.22C35.3086 22.0347 35.6866 21.092 36.4426 20.392C37.2079 19.692 38.1086 19.342 39.1446 19.342C40.1806 19.342 41.0579 19.6547 41.7766 20.28C42.5046 20.9053 42.8686 21.764 42.8686 22.856V23.976H37.3806C37.4459 24.3867 37.6606 24.7227 38.0246 24.984C38.3886 25.2453 38.7992 25.376 39.2566 25.376C39.9939 25.376 40.6006 25.1287 41.0766 24.634L42.2526 25.908ZM40.7406 22.478C40.6939 22.03 40.5259 21.6847 40.2366 21.442C39.9472 21.1993 39.5926 21.078 39.1726 21.078C38.7619 21.078 38.3839 21.204 38.0386 21.456C37.6932 21.708 37.4926 22.0487 37.4366 22.478H40.7406Z" fill="#252B42"/>
<g clip-path="url(#clip0_1_76)">
<path fill-rule="evenodd" clip-rule="evenodd" d="M58.5 27.196L63.8593 22L58.5 16.804L59.3278 16L65.5 22.003L59.3278 28L58.5 27.196Z" fill="#BDBDBD"/>
</g>
<path d="M84.9114 18.908C84.5474 18.908 84.2581 18.9967 84.0434 19.174C83.8381 19.342 83.7354 19.5707 83.7354 19.86C83.7354 20.14 83.8614 20.364 84.1134 20.532C84.3748 20.7 84.9674 20.9007 85.8914 21.134C86.8248 21.358 87.5481 21.6987 88.0614 22.156C88.5748 22.6133 88.8314 23.2807 88.8314 24.158C88.8314 25.0353 88.5001 25.7493 87.8374 26.3C87.1841 26.8413 86.3208 27.112 85.2474 27.112C83.6981 27.112 82.3028 26.538 81.0614 25.39L82.3634 23.794C83.4181 24.718 84.3934 25.18 85.2894 25.18C85.6908 25.18 86.0034 25.096 86.2274 24.928C86.4608 24.7507 86.5774 24.5173 86.5774 24.228C86.5774 23.9293 86.4561 23.696 86.2134 23.528C85.9708 23.3507 85.4901 23.1733 84.7714 22.996C83.6328 22.7253 82.7974 22.3753 82.2654 21.946C81.7428 21.5073 81.4814 20.826 81.4814 19.902C81.4814 18.9687 81.8128 18.25 82.4754 17.746C83.1474 17.242 83.9828 16.99 84.9814 16.99C85.6348 16.99 86.2881 17.102 86.9414 17.326C87.5948 17.55 88.1641 17.8673 88.6494 18.278L87.5434 19.874C86.6941 19.23 85.8168 18.908 84.9114 18.908ZM92.7792 22.94V27H90.6792V16.612H92.7792V20.308C93.4138 19.664 94.1232 19.342 94.9072 19.342C95.7005 19.342 96.3678 19.622 96.9092 20.182C97.4505 20.742 97.7212 21.4887 97.7212 22.422V27H95.6212V22.884C95.6212 21.7267 95.1965 21.148 94.3472 21.148C93.9272 21.148 93.5585 21.302 93.2412 21.61C92.9332 21.9087 92.7792 22.352 92.7792 22.94ZM101.501 23.234C101.501 23.85 101.673 24.354 102.019 24.746C102.373 25.1287 102.821 25.32 103.363 25.32C103.913 25.32 104.361 25.1287 104.707 24.746C105.061 24.354 105.239 23.85 105.239 23.234C105.239 22.618 105.061 22.114 104.707 21.722C104.361 21.33 103.913 21.134 103.363 21.134C102.821 21.134 102.373 21.33 102.019 21.722C101.673 22.114 101.501 22.618 101.501 23.234ZM107.353 23.234C107.353 24.326 106.975 25.2453 106.219 25.992C105.463 26.7387 104.511 27.112 103.363 27.112C102.224 27.112 101.277 26.7387 100.521 25.992C99.7646 25.2453 99.3866 24.326 99.3866 23.234C99.3866 22.142 99.7646 21.2227 100.521 20.476C101.277 19.72 102.224 19.342 103.363 19.342C104.511 19.342 105.463 19.72 106.219 20.476C106.975 21.2227 107.353 22.142 107.353 23.234ZM113.494 19.342C114.372 19.342 115.151 19.7107 115.832 20.448C116.523 21.176 116.868 22.0953 116.868 23.206C116.868 24.3167 116.523 25.2453 115.832 25.992C115.151 26.7387 114.348 27.112 113.424 27.112C112.51 27.112 111.772 26.7433 111.212 26.006V29.716H109.112V19.468H111.212V20.308C111.856 19.664 112.617 19.342 113.494 19.342ZM111.184 23.248C111.184 23.8547 111.352 24.354 111.688 24.746C112.034 25.1287 112.449 25.32 112.934 25.32C113.42 25.32 113.844 25.1287 114.208 24.746C114.572 24.354 114.754 23.8547 114.754 23.248C114.754 22.6413 114.577 22.1327 114.222 21.722C113.868 21.3113 113.443 21.106 112.948 21.106C112.454 21.106 112.034 21.3113 111.688 21.722C111.352 22.1233 111.184 22.632 111.184 23.248Z" fill="#737373"/>
<defs>
<clipPath id="clip0_1_76">
<rect width="7" height="12" fill="white" transform="translate(58.5 16)"/>
</clipPath>
</defs>
</svg>
