<svg width="46" height="46" viewBox="0 0 46 46" fill="none" xmlns="http://www.w3.org/2000/svg">
<g clip-path="url(#clip0_1_448)">
<g clip-path="url(#clip1_1_448)">
<g clip-path="url(#clip2_1_448)">
<path d="M26.7429 25.3441C27.7112 24.0228 28.1449 22.3846 27.9572 20.7572C27.7695 19.1299 26.9743 17.6334 25.7307 16.5672C24.487 15.501 22.8866 14.9437 21.2497 15.0068C19.6128 15.0699 18.0601 15.7487 16.9022 16.9074C15.7442 18.0662 15.0665 19.6194 15.0046 21.2563C14.9427 22.8933 15.5012 24.4933 16.5683 25.7361C17.6354 26.979 19.1324 27.7732 20.7599 27.9597C22.3874 28.1462 24.0253 27.7113 25.3459 26.7421H25.3449C25.3749 26.7821 25.4069 26.8201 25.4429 26.8571L29.2929 30.7071C29.4804 30.8947 29.7348 31.0002 30 31.0003C30.2653 31.0004 30.5198 30.8951 30.7074 30.7076C30.895 30.5201 31.0005 30.2657 31.0006 30.0005C31.0007 29.7352 30.8954 29.4807 30.7079 29.2931L26.8579 25.4431C26.8221 25.4069 26.7837 25.3735 26.7429 25.3431V25.3441ZM27.0009 21.5001C27.0009 22.2224 26.8586 22.9376 26.5822 23.6049C26.3058 24.2722 25.9007 24.8785 25.39 25.3892C24.8793 25.8999 24.2729 26.305 23.6057 26.5814C22.9384 26.8578 22.2232 27.0001 21.5009 27.0001C20.7786 27.0001 20.0634 26.8578 19.3961 26.5814C18.7288 26.305 18.1225 25.8999 17.6118 25.3892C17.1011 24.8785 16.696 24.2722 16.4196 23.6049C16.1432 22.9376 16.0009 22.2224 16.0009 21.5001C16.0009 20.0414 16.5804 18.6425 17.6118 17.611C18.6433 16.5796 20.0422 16.0001 21.5009 16.0001C22.9596 16.0001 24.3585 16.5796 25.39 17.611C26.4214 18.6425 27.0009 20.0414 27.0009 21.5001Z" fill="#23A6F0"/>
</g>
</g>
</g>
<defs>
<clipPath id="clip0_1_448">
<rect width="46.0006" height="46.0003" fill="white"/>
</clipPath>
<clipPath id="clip1_1_448">
<rect width="46.0006" height="46.0003" fill="white"/>
</clipPath>
<clipPath id="clip2_1_448">
<rect width="16.0006" height="16.0003" fill="white" transform="translate(15 15)"/>
</clipPath>
</defs>
</svg>
