<svg width="42" height="11" viewBox="0 0 42 11" fill="none" xmlns="http://www.w3.org/2000/svg">
<path d="M6.89113 0.213999H9.07513V10H6.89113V6.15H2.99913V10H0.815134V0.213999H2.99913V4.302H6.89113V0.213999ZM13.1492 6.234C13.1492 6.85 13.3219 7.354 13.6672 7.746C14.0219 8.12867 14.4699 8.32 15.0112 8.32C15.5619 8.32 16.0099 8.12867 16.3552 7.746C16.7099 7.354 16.8872 6.85 16.8872 6.234C16.8872 5.618 16.7099 5.114 16.3552 4.722C16.0099 4.33 15.5619 4.134 15.0112 4.134C14.4699 4.134 14.0219 4.33 13.6672 4.722C13.3219 5.114 13.1492 5.618 13.1492 6.234ZM19.0012 6.234C19.0012 7.326 18.6232 8.24533 17.8672 8.992C17.1112 9.73867 16.1592 10.112 15.0112 10.112C13.8725 10.112 12.9252 9.73867 12.1692 8.992C11.4132 8.24533 11.0352 7.326 11.0352 6.234C11.0352 5.142 11.4132 4.22267 12.1692 3.476C12.9252 2.72 13.8725 2.342 15.0112 2.342C16.1592 2.342 17.1112 2.72 17.8672 3.476C18.6232 4.22267 19.0012 5.142 19.0012 6.234ZM27.677 5.94V10H25.563V5.884C25.563 5.28667 25.4697 4.848 25.283 4.568C25.1057 4.288 24.8117 4.148 24.401 4.148C23.9997 4.148 23.6403 4.302 23.323 4.61C23.015 4.90867 22.861 5.352 22.861 5.94V10H20.761V2.468H22.861V3.322C23.4397 2.66867 24.1023 2.342 24.849 2.342C25.325 2.342 25.7543 2.482 26.137 2.762C26.529 3.042 26.823 3.38267 27.019 3.784C27.3083 3.32667 27.6957 2.972 28.181 2.72C28.6757 2.468 29.1703 2.342 29.665 2.342C30.5517 2.342 31.2657 2.608 31.807 3.14C32.3483 3.66267 32.619 4.42333 32.619 5.422V10H30.505V5.884C30.505 4.72667 30.0803 4.148 29.231 4.148C28.811 4.148 28.447 4.302 28.139 4.61C27.831 4.90867 27.677 5.352 27.677 5.94ZM41.2526 8.908C40.4032 9.71067 39.4046 10.112 38.2566 10.112C37.1179 10.112 36.1752 9.762 35.4286 9.062C34.6819 8.35267 34.3086 7.40533 34.3086 6.22C34.3086 5.03467 34.6866 4.092 35.4426 3.392C36.2079 2.692 37.1086 2.342 38.1446 2.342C39.1806 2.342 40.0579 2.65467 40.7766 3.28C41.5046 3.90533 41.8686 4.764 41.8686 5.856V6.976H36.3806C36.4459 7.38667 36.6606 7.72267 37.0246 7.984C37.3886 8.24533 37.7992 8.376 38.2566 8.376C38.9939 8.376 39.6006 8.12867 40.0766 7.634L41.2526 8.908ZM39.7406 5.478C39.6939 5.03 39.5259 4.68467 39.2366 4.442C38.9472 4.19933 38.5926 4.078 38.1726 4.078C37.7619 4.078 37.3839 4.204 37.0386 4.456C36.6932 4.708 36.4926 5.04867 36.4366 5.478H39.7406Z" fill="#252B42"/>
</svg>
