<svg width="56" height="46" viewBox="0 0 56 46" fill="none" xmlns="http://www.w3.org/2000/svg">
<g clip-path="url(#clip0_1_453)">
<g clip-path="url(#clip1_1_453)">
<g clip-path="url(#clip2_1_453)">
<path d="M15.0006 16.5C15.0006 16.3674 15.0533 16.2402 15.1471 16.1464C15.2408 16.0527 15.368 16 15.5006 16H17.0006C17.1121 16 17.2205 16.0374 17.3083 16.106C17.3962 16.1747 17.4586 16.2708 17.4856 16.379L17.8906 18H29.5006C29.574 18.0001 29.6465 18.0163 29.713 18.0476C29.7794 18.0788 29.8381 18.1243 29.885 18.1808C29.9319 18.2373 29.9657 18.3035 29.9841 18.3745C30.0026 18.4456 30.0051 18.5198 29.9916 18.592L28.4916 26.592C28.4702 26.7066 28.4094 26.8101 28.3197 26.8846C28.23 26.9591 28.1172 26.9999 28.0006 27H19.0006C18.884 26.9999 18.7712 26.9591 18.6815 26.8846C18.5919 26.8101 18.5311 26.7066 18.5096 26.592L17.0106 18.607L16.6106 17H15.5006C15.368 17 15.2408 16.9473 15.1471 16.8536C15.0533 16.7598 15.0006 16.6326 15.0006 16.5ZM18.1026 19L19.4156 26H27.5856L28.8986 19H18.1026ZM20.0006 27C19.4702 27 18.9615 27.2107 18.5864 27.5858C18.2113 27.9609 18.0006 28.4696 18.0006 29C18.0006 29.5304 18.2113 30.0391 18.5864 30.4142C18.9615 30.7893 19.4702 31 20.0006 31C20.531 31 21.0398 30.7893 21.4148 30.4142C21.7899 30.0391 22.0006 29.5304 22.0006 29C22.0006 28.4696 21.7899 27.9609 21.4148 27.5858C21.0398 27.2107 20.531 27 20.0006 27ZM27.0006 27C26.4702 27 25.9615 27.2107 25.5864 27.5858C25.2113 27.9609 25.0006 28.4696 25.0006 29C25.0006 29.5304 25.2113 30.0391 25.5864 30.4142C25.9615 30.7893 26.4702 31 27.0006 31C27.531 31 28.0398 30.7893 28.4148 30.4142C28.7899 30.0391 29.0006 29.5304 29.0006 29C29.0006 28.4696 28.7899 27.9609 28.4148 27.5858C28.0398 27.2107 27.531 27 27.0006 27ZM20.0006 28C20.2658 28 20.5202 28.1054 20.7077 28.2929C20.8953 28.4804 21.0006 28.7348 21.0006 29C21.0006 29.2652 20.8953 29.5196 20.7077 29.7071C20.5202 29.8946 20.2658 30 20.0006 30C19.7354 30 19.481 29.8946 19.2935 29.7071C19.106 29.5196 19.0006 29.2652 19.0006 29C19.0006 28.7348 19.106 28.4804 19.2935 28.2929C19.481 28.1054 19.7354 28 20.0006 28ZM27.0006 28C27.2658 28 27.5202 28.1054 27.7077 28.2929C27.8953 28.4804 28.0006 28.7348 28.0006 29C28.0006 29.2652 27.8953 29.5196 27.7077 29.7071C27.5202 29.8946 27.2658 30 27.0006 30C26.7354 30 26.481 29.8946 26.2935 29.7071C26.106 29.5196 26.0006 29.2652 26.0006 29C26.0006 28.7348 26.106 28.4804 26.2935 28.2929C26.481 28.1054 26.7354 28 27.0006 28Z" fill="#23A6F0"/>
</g>
<path d="M36.5635 18.612H39.6115V27H38.2675V19.872H36.5635V18.612Z" fill="#23A6F0"/>
</g>
</g>
<defs>
<clipPath id="clip0_1_453">
<rect width="56" height="46" fill="white" transform="translate(0.000610352)"/>
</clipPath>
<clipPath id="clip1_1_453">
<rect width="56" height="46" fill="white" transform="translate(0.000610352)"/>
</clipPath>
<clipPath id="clip2_1_453">
<rect width="16" height="16" fill="white" transform="translate(15.0006 15)"/>
</clipPath>
</defs>
</svg>
