<svg width="56" height="46" viewBox="0 0 56 46" fill="none" xmlns="http://www.w3.org/2000/svg">
<g clip-path="url(#clip0_1_459)">
<g clip-path="url(#clip1_1_459)">
<g clip-path="url(#clip2_1_459)">
<path d="M23.0005 17.748L22.2835 17.011C20.6005 15.281 17.5145 15.878 16.4005 18.053C15.8775 19.076 15.7595 20.553 16.7145 22.438C17.6345 24.253 19.5485 26.427 23.0005 28.795C26.4525 26.427 28.3655 24.253 29.2865 22.438C30.2415 20.552 30.1245 19.076 29.6005 18.053C28.4865 15.878 25.4005 15.28 23.7175 17.01L23.0005 17.748ZM23.0005 30C7.66751 19.868 18.2795 11.96 22.8245 16.143C22.8845 16.198 22.9435 16.255 23.0005 16.314C23.0569 16.2551 23.1156 16.1984 23.1765 16.144C27.7205 11.958 38.3335 19.867 23.0005 30Z" fill="#23A6F0"/>
</g>
<path d="M36.5635 18.612H39.6115V27H38.2675V19.872H36.5635V18.612Z" fill="#23A6F0"/>
</g>
</g>
<defs>
<clipPath id="clip0_1_459">
<rect width="56" height="46" fill="white" transform="translate(0.000610352)"/>
</clipPath>
<clipPath id="clip1_1_459">
<rect width="56" height="46" fill="white" transform="translate(0.000610352)"/>
</clipPath>
<clipPath id="clip2_1_459">
<rect width="16" height="16" fill="white" transform="translate(15.0006 15)"/>
</clipPath>
</defs>
</svg>
