<svg width="36" height="14" viewBox="0 0 36 14" fill="none" xmlns="http://www.w3.org/2000/svg">
<path d="M3.91142 2.908C3.54742 2.908 3.25809 2.99667 3.04342 3.174C2.83809 3.342 2.73542 3.57067 2.73542 3.86C2.73542 4.14 2.86142 4.364 3.11342 4.532C3.37476 4.7 3.96742 4.90067 4.89142 5.134C5.82476 5.358 6.54809 5.69867 7.06142 6.156C7.57476 6.61333 7.83142 7.28067 7.83142 8.158C7.83142 9.03533 7.50009 9.74933 6.83742 10.3C6.18409 10.8413 5.32076 11.112 4.24742 11.112C2.69809 11.112 1.30276 10.538 0.0614227 9.39L1.36342 7.794C2.41809 8.718 3.39342 9.18 4.28942 9.18C4.69076 9.18 5.00342 9.096 5.22742 8.928C5.46076 8.75067 5.57742 8.51733 5.57742 8.228C5.57742 7.92933 5.45609 7.696 5.21342 7.528C4.97076 7.35067 4.49009 7.17333 3.77142 6.996C2.63276 6.72533 1.79742 6.37533 1.26542 5.946C0.742756 5.50733 0.481423 4.826 0.481423 3.902C0.481423 2.96867 0.812756 2.25 1.47542 1.746C2.14742 1.242 2.98276 0.99 3.98142 0.99C4.63476 0.99 5.28809 1.102 5.94142 1.326C6.59476 1.55 7.16409 1.86733 7.64942 2.278L6.54342 3.874C5.69409 3.23 4.81676 2.908 3.91142 2.908ZM11.7792 6.94V11H9.67916V0.611999H11.7792V4.308C12.4138 3.664 13.1232 3.342 13.9072 3.342C14.7005 3.342 15.3678 3.622 15.9092 4.182C16.4505 4.742 16.7212 5.48867 16.7212 6.422V11H14.6212V6.884C14.6212 5.72667 14.1965 5.148 13.3472 5.148C12.9272 5.148 12.5585 5.302 12.2412 5.61C11.9332 5.90867 11.7792 6.352 11.7792 6.94ZM20.5006 7.234C20.5006 7.85 20.6732 8.354 21.0186 8.746C21.3732 9.12867 21.8212 9.32 22.3626 9.32C22.9132 9.32 23.3612 9.12867 23.7066 8.746C24.0612 8.354 24.2386 7.85 24.2386 7.234C24.2386 6.618 24.0612 6.114 23.7066 5.722C23.3612 5.33 22.9132 5.134 22.3626 5.134C21.8212 5.134 21.3732 5.33 21.0186 5.722C20.6732 6.114 20.5006 6.618 20.5006 7.234ZM26.3526 7.234C26.3526 8.326 25.9746 9.24533 25.2186 9.992C24.4626 10.7387 23.5106 11.112 22.3626 11.112C21.2239 11.112 20.2766 10.7387 19.5206 9.992C18.7646 9.24533 18.3866 8.326 18.3866 7.234C18.3866 6.142 18.7646 5.22267 19.5206 4.476C20.2766 3.72 21.2239 3.342 22.3626 3.342C23.5106 3.342 24.4626 3.72 25.2186 4.476C25.9746 5.22267 26.3526 6.142 26.3526 7.234ZM32.4944 3.342C33.3717 3.342 34.151 3.71067 34.8324 4.448C35.523 5.176 35.8684 6.09533 35.8684 7.206C35.8684 8.31667 35.523 9.24533 34.8324 9.992C34.151 10.7387 33.3484 11.112 32.4244 11.112C31.5097 11.112 30.7724 10.7433 30.2124 10.006V13.716H28.1124V3.468H30.2124V4.308C30.8564 3.664 31.617 3.342 32.4944 3.342ZM30.1844 7.248C30.1844 7.85467 30.3524 8.354 30.6884 8.746C31.0337 9.12867 31.449 9.32 31.9344 9.32C32.4197 9.32 32.8444 9.12867 33.2084 8.746C33.5724 8.354 33.7544 7.85467 33.7544 7.248C33.7544 6.64133 33.577 6.13267 33.2224 5.722C32.8677 5.31133 32.443 5.106 31.9484 5.106C31.4537 5.106 31.0337 5.31133 30.6884 5.722C30.3524 6.12333 30.1844 6.632 30.1844 7.248Z" fill="#737373"/>
</svg>
